<svg xmlns="http://www.w3.org/2000/svg" viewBox="0 0 679.16 248.25"><defs><style>.cls-1,.cls-2{fill:#06df70;}.cls-2{fill-rule:evenodd;}</style></defs><g id="Layer_2" data-name="Layer 2"><g id="Layer_1-2" data-name="Layer 1"><path class="cls-1" d="M249.35,207.2a24.38,24.38,0,0,0-7.67-5.2A23.92,23.92,0,0,0,223,202a24.55,24.55,0,0,0-12.86,12.86,23.95,23.95,0,0,0,0,18.65A24.45,24.45,0,0,0,223,246.37a24,24,0,0,0,18.64,0,24.45,24.45,0,0,0,12.86-12.86,23.95,23.95,0,0,0,0-18.65,24.59,24.59,0,0,0-5.19-7.66"/><rect class="cls-1" x="632.91" width="46.25" height="187.09"/><path class="cls-1" d="M322.05,41.16a24.19,24.19,0,0,0,7.67,5.19,23.92,23.92,0,0,0,18.64,0,24.45,24.45,0,0,0,12.86-12.86,23.14,23.14,0,0,0,1.89-9.32,23.21,23.21,0,0,0-1.89-9.32A24.45,24.45,0,0,0,348.36,2a23.92,23.92,0,0,0-18.64,0,24.45,24.45,0,0,0-12.86,12.86A23.21,23.21,0,0,0,315,24.17a23.14,23.14,0,0,0,1.89,9.32,24.24,24.24,0,0,0,5.19,7.67"/><path class="cls-1" d="M194.35,207.2a24.45,24.45,0,0,0-7.66-5.2,23.92,23.92,0,0,0-18.64,0,24.61,24.61,0,0,0-12.87,12.86,24.07,24.07,0,0,0,0,18.65,24.52,24.52,0,0,0,12.87,12.86,24,24,0,0,0,18.64,0,24.59,24.59,0,0,0,7.66-5.19,24.3,24.3,0,0,0,5.19-7.67,23.83,23.83,0,0,0,0-18.65,24.26,24.26,0,0,0-5.19-7.66"/><path class="cls-1" d="M139.36,207.2a24.5,24.5,0,0,0-7.67-5.2,23.92,23.92,0,0,0-18.64,0,24.55,24.55,0,0,0-12.86,12.86,23.95,23.95,0,0,0,0,18.65,24.45,24.45,0,0,0,12.86,12.86,24,24,0,0,0,18.64,0,24.45,24.45,0,0,0,12.86-12.86,23.95,23.95,0,0,0,0-18.65,24.59,24.59,0,0,0-5.19-7.66"/><path class="cls-1" d="M571.48,58.81V114.9a66.19,66.19,0,0,1-1.3,14.52c0,.23-.13.43-.19.65h0a23.81,23.81,0,0,1-4.53,7,19.85,19.85,0,0,1-6.7,4.68,20.43,20.43,0,0,1-7.74,1.66H421.92A18.62,18.62,0,0,1,416,142a16,16,0,0,1-6.37-4,18,18,0,0,1-4.61-8.85,53.34,53.34,0,0,1-1.12-8.82V58.48l-43,0v60A66.24,66.24,0,0,1,359.63,133c0,.13-.07.24-.11.36s-.17.49-.22.59a24,24,0,0,1-4.4,6.73,20.18,20.18,0,0,1-6.71,4.68,20.72,20.72,0,0,1-7.73,1.66h-1.68a20.76,20.76,0,0,1-7.73-1.66,20,20,0,0,1-6.7-4.68,23.9,23.9,0,0,1-4.54-7h0c-.06-.23-.14-.43-.19-.66a65.54,65.54,0,0,1-1.3-14.51v-60h-43v69.06c-.09.49-.17,1-.28,1.49a18,18,0,0,1-4.6,8.85,16.32,16.32,0,0,1-6.37,4,19,19,0,0,1-5.89,1.39H105.39a29.56,29.56,0,0,0-7,1.33,22.2,22.2,0,0,0-15.71,16l-6.78,26.5H248.59a52.32,52.32,0,0,0,21.83-4.6,43.55,43.55,0,0,0,15.46-11.68c.62-.74,1.16-1.5,1.71-2.27a53.06,53.06,0,0,0,40.31,18.32l10.59.1h2.26l10.6-.1a53,53,0,0,0,40.48-18.55,37,37,0,0,0,2.38,3.14,43.51,43.51,0,0,0,15.45,11.68q9.09,4.13,21.83,4.13h0l130.43-.1c25.61,0,46.94-17.8,51.63-41.37l.09-.07a53.18,53.18,0,0,0,.79-6.89c0-.07,0-.14,0-.2,0-.81.06-1.63.06-2.47V58.82Z"/><path class="cls-1" d="M42.94,0,13,114.94H37.89a26.4,26.4,0,0,0,25.57-19.8L88.28,0Z"/><path class="cls-2" d="M27.94,131.2A27.95,27.95,0,1,1,0,159.14,28,28,0,0,1,27.94,131.2Z"/><polygon class="cls-1" points="14.23 2.31 14.29 2.31 17.75 11.97 19.29 11.97 22.77 2.31 22.83 2.31 22.83 11.97 25.43 11.97 25.43 0 21.23 0 18.53 7.08 15.83 0 11.62 0 11.62 11.97 14.23 11.97 14.23 2.31"/><polygon class="cls-1" points="3.65 11.97 6.52 11.97 6.52 2.31 10.17 2.31 10.17 0 0 0 0 2.31 3.65 2.31 3.65 11.97"/></g></g></svg>