<svg xmlns="http://www.w3.org/2000/svg" viewBox="0 0 794.52 228.03"><defs><style>.cls-1,.cls-2{fill:#06df70;}.cls-2{fill-rule:evenodd;}</style></defs><g id="Layer_2" data-name="Layer 2"><g id="Layer_1-2" data-name="Layer 1"><path class="cls-1" d="M114.48,27A25,25,0,0,1,85.12,39.54a42.08,42.08,0,0,0-12-1.78c-8.29,0-19.34,4.84-19.34,14.51,0,10.13,12.2,14,20,16.58L85.34,72.3c24.17,7.14,42.82,19.34,42.82,47.43,0,17.27-4.14,35-18,46.74C96.62,178,78.43,182.82,60.93,182.82c-21.79,0-43.12-7.31-60.8-19.65a.29.29,0,0,1-.09-.38l19.21-36.15c11.28,9.9,24.64,18,40.06,18,10.6,0,21.88-5.3,21.88-17.5,0-12.66-17.73-17-27.4-19.8-28.32-8.06-47-15.43-47-49C6.82,23,31.91,0,66.68,0c17.41,0,38.69,5.47,54.1,14.14a.29.29,0,0,1,.11.39Z"/><path class="cls-1" d="M178.43,75.29h0a.31.31,0,0,0,.25-.13c9.65-14.17,21.37-19,37.67-19,31.78,0,44.44,20,44.44,49.05v48a25,25,0,0,1-25,24.95H219.18a.31.31,0,0,1-.3-.3V120.65c0-11.28,1.85-31.08-18.88-31.08-17,0-21.87,12.66-21.87,27.4v36.3a25,25,0,0,1-24.95,24.95H136.52a.3.3,0,0,1-.3-.3V60.39a.3.3,0,0,1,.3-.3h41.31a.31.31,0,0,1,.3.3V75a.29.29,0,0,0,.3.29"/><path class="cls-1" d="M381.49,178.22H364.83a.31.31,0,0,1-.3-.3V165.39a.3.3,0,0,0-.3-.3.3.3,0,0,0-.25.14c-7.39,11.65-21.84,16.9-35.6,16.9-35,0-59.64-29.24-59.64-63.09s24.18-62.86,59.18-62.86c13.32,0,27.3,4.87,36.09,14.82a.3.3,0,0,0,.52-.19V60.39a.31.31,0,0,1,.3-.3h41.31a.3.3,0,0,1,.3.3v92.88a25,25,0,0,1-24.95,24.95M312,119.27c0,15,9.9,26.48,26.94,26.48s26.94-11.51,26.94-26.48c0-14.5-9.9-26.71-26.94-26.71S312,104.77,312,119.27"/><path class="cls-1" d="M461.46,73.45h0a.31.31,0,0,0,.25-.13c7.61-11.65,21.84-17.14,35.6-17.14,35.23,0,59.64,29.47,59.64,63.32,0,34.08-24.18,62.63-59.18,62.63-13.55,0-27.56-4.81-36.54-15.12l-.07,0v36a25,25,0,0,1-25,24.95H419.26V60.09h41.9V73.15a.29.29,0,0,0,.3.3m-1.68,45.82c0,15,9.9,26.48,26.94,26.48s26.94-11.51,26.94-26.48c0-14.5-9.9-26.71-26.94-26.71s-26.94,12.21-26.94,26.71"/><path class="cls-1" d="M607,73.45h0a.31.31,0,0,0,.25-.13c7.62-11.65,21.84-17.14,35.6-17.14,35.23,0,59.64,29.47,59.64,63.32,0,34.08-24.18,62.63-59.18,62.63-13.32,0-27.09-4.65-36.09-14.61a.3.3,0,0,0-.52.2v35.36A25,25,0,0,1,581.73,228H565.07a.29.29,0,0,1-.29-.3V60.39a.3.3,0,0,1,.29-.3h41.31a.3.3,0,0,1,.3.3V73.15a.29.29,0,0,0,.3.3m-1.68,45.82c0,15,9.9,26.48,26.94,26.48s26.94-11.51,26.94-26.48c0-14.5-9.9-26.71-26.94-26.71s-26.94,12.21-26.94,26.71"/><path class="cls-1" d="M751.5,4.61,723.1,113.67h23.61A25,25,0,0,0,771,94.88L794.52,4.61Z"/><path class="cls-2" d="M737.27,129.1a26.51,26.51,0,1,1-26.51,26.51A26.52,26.52,0,0,1,737.27,129.1Z"/><polygon class="cls-1" points="724.26 6.8 724.31 6.8 727.6 15.97 729.06 15.97 732.36 6.8 732.41 6.8 732.41 15.97 734.89 15.97 734.89 4.61 730.9 4.61 728.34 11.33 725.78 4.61 721.78 4.61 721.78 15.97 724.26 15.97 724.26 6.8"/><polygon class="cls-1" points="714.22 15.97 716.94 15.97 716.94 6.8 720.4 6.8 720.4 4.61 710.76 4.61 710.76 6.8 714.22 6.8 714.22 15.97"/></g></g></svg>